<?xml version="1.0" standalone="no"?>
<!DOCTYPE svg PUBLIC "-//W3C//DTD SVG 20010904//EN"
 "http://www.w3.org/TR/2001/REC-SVG-20010904/DTD/svg10.dtd">
<svg version="1.0" xmlns="http://www.w3.org/2000/svg"
 width="700.000000pt" height="700.000000pt" viewBox="0 0 700.000000 700.000000"
 preserveAspectRatio="xMidYMid meet">
<metadata>
Created by potrace 1.14, written by Peter Selinger 2001-2017
</metadata>
<g transform="translate(0.000000,700.000000) scale(0.100000,-0.100000)"
fill="#000000" stroke="none">
<path d="M3500 4719 c0 -363 -1 -399 -17 -418 l-18 -22 -61 70 c-113 128 -271
253 -370 290 -22 9 -184 92 -359 185 -249 132 -319 166 -326 155 -5 -8 -88
-164 -185 -346 l-176 -333 -234 0 -234 0 0 -389 0 -389 -97 -12 c-178 -22
-523 -122 -523 -152 0 -17 101 -206 153 -286 179 -275 441 -518 721 -668 l81
-43 -55 -23 c-105 -42 -265 -127 -355 -186 -92 -62 -245 -186 -245 -201 0 -20
281 -128 444 -171 237 -62 344 -75 646 -75 220 0 299 4 395 19 243 38 468 106
681 206 l101 47 65 -33 c634 -320 1478 -335 2127 -38 45 20 81 40 81 44 0 12
-89 91 -171 153 -96 72 -258 166 -360 208 -43 18 -79 35 -79 39 0 3 26 18 58
34 280 137 546 373 733 650 86 128 183 310 176 331 -13 31 -384 133 -554 151
l-63 7 0 388 0 389 -269 0 -269 0 -183 345 c-101 190 -186 345 -190 345 -4 0
-143 -72 -308 -160 -166 -88 -304 -160 -308 -160 -5 0 -108 100 -230 222
l-223 223 0 -396z"/>
</g>
</svg>
